<?xml version="1.0" standalone="no"?>
<!DOCTYPE svg PUBLIC "-//W3C//DTD SVG 20010904//EN"
 "http://www.w3.org/TR/2001/REC-SVG-20010904/DTD/svg10.dtd">
<svg version="1.0" xmlns="http://www.w3.org/2000/svg"
 width="300.000000pt" height="75.000000pt" viewBox="0 0 300.000000 75.000000"
 preserveAspectRatio="xMidYMid meet">
<metadata>
Created by potrace 1.10, written by Peter Selinger 2001-2011
</metadata>
<g transform="translate(0.000000,75.000000) scale(0.100000,-0.100000)"
fill="#000000" stroke="none">
<path d="M452 528 c-89 -61 -92 -64 -90 -98 3 -29 7 -36 31 -40 28 -5 27 -6
-53 -92 -80 -87 -81 -88 -78 -135 l3 -48 145 -6 c197 -9 656 -10 703 -3 36 6
37 8 37 47 0 62 -70 267 -91 267 -28 0 -31 29 -5 53 19 18 23 29 19 58 l-5 36
-116 6 c-65 4 -182 9 -262 12 l-145 5 -93 -62z m447 26 c87 -17 104 -17 96 -4
-4 6 5 10 21 10 l27 0 -24 -23 c-13 -13 -43 -38 -67 -56 -23 -18 -39 -38 -36
-43 4 -6 3 -8 -3 -5 -14 9 -358 37 -451 37 l-76 0 85 54 84 55 135 -5 c74 -3
168 -12 209 -20z m150 -57 c9 4 4 -7 -13 -25 -16 -18 -32 -30 -34 -27 -8 8
-32 -17 -26 -27 3 -5 11 -4 20 3 16 13 44 5 44 -12 0 -8 -13 -10 -40 -6 -27 3
-43 1 -51 -9 -8 -10 -8 -14 0 -14 6 0 11 -17 11 -40 0 -33 -4 -40 -22 -45 -53
-11 -393 -53 -400 -49 -5 3 -8 22 -8 43 l0 38 88 12 c48 7 128 14 177 16 78 4
68 1 -73 -18 -166 -22 -193 -33 -173 -66 7 -11 40 -9 182 10 96 13 167 25 158
27 -9 2 -82 -6 -163 -17 -176 -25 -166 -25 -166 -3 0 17 17 21 148 36 81 9
166 20 190 23 34 5 42 3 42 -10 0 -9 -8 -18 -17 -20 -17 -4 -17 -5 0 -6 25 -1
33 26 13 48 -15 16 -15 19 4 36 23 21 19 35 -5 15 -25 -21 -26 -7 -2 21 12 14
18 18 13 9 -5 -8 8 4 29 28 25 28 41 40 48 33 5 -5 17 -7 26 -4z m-651 -67
c-1 -37 -22 -34 -26 3 -2 19 1 27 12 27 10 0 14 -10 14 -30z m107 20 c-29 -7
-30 -8 -4 -9 20 -1 28 -7 31 -26 6 -27 -4 -30 -61 -19 -26 6 -31 11 -31 35 0
28 2 29 48 28 42 -1 44 -2 17 -9z m165 -10 c-23 -7 -23 -8 -4 -9 15 -1 23 -9
27 -27 l5 -26 -56 6 c-54 6 -72 17 -72 43 0 12 32 20 90 21 31 0 32 -1 10 -8z
m163 -32 c2 -18 3 -34 2 -36 -2 -2 -24 0 -49 3 -42 7 -46 10 -46 36 0 28 2 29
44 29 42 0 44 -2 49 -32z m67 8 c0 -8 3 -21 6 -30 4 -11 1 -16 -10 -16 -9 0
-16 3 -16 8 0 4 -3 17 -6 30 -5 16 -2 22 10 22 9 0 16 -6 16 -14z m94 -48 c10
-40 7 -68 -9 -68 -11 0 -15 12 -15 45 0 48 14 60 24 23z m34 -26 c2 -25 -1
-42 -7 -42 -6 0 -11 10 -11 23 0 12 -3 33 -7 46 -4 18 -2 23 8 19 8 -3 15 -22
17 -46z m26 32 c9 -24 7 -64 -3 -64 -5 0 -11 18 -13 40 -4 40 5 53 16 24z
m-624 -37 c-25 -56 -13 -117 23 -117 19 -1 19 -2 6 -10 -10 -6 -29 -6 -50 0
-19 6 -49 10 -68 10 l-35 0 39 40 c21 21 43 36 48 33 6 -3 7 -1 3 5 -6 10 33
81 46 82 4 0 -2 -19 -12 -43z m270 32 c34 -1 23 -4 -45 -14 -49 -7 -118 -16
-153 -19 l-62 -7 12 27 12 27 96 -7 c52 -3 115 -6 140 -7z m411 -136 c10 -11
-42 -13 -297 -12 -170 0 -304 2 -299 4 6 3 116 18 245 35 339 44 310 37 311
68 0 18 5 8 15 -27 8 -30 19 -61 25 -68z m-589 52 c2 -31 -1 -45 -9 -45 -14 0
-28 63 -18 79 13 22 23 10 27 -34z m-70 -7 c5 -48 4 -53 -11 -43 -13 8 -15 85
-2 85 5 0 11 -19 13 -42z m31 0 c6 -47 1 -61 -13 -38 -12 19 -13 80 -1 80 4 0
11 -19 14 -42z m-155 -133 c-2 -2 -15 -1 -30 2 -40 8 -40 50 0 55 23 3 27 -1
30 -25 2 -16 2 -30 0 -32z m562 55 l-165 -6 166 -2 166 -2 -5 -30 c-3 -24 -9
-30 -29 -30 -13 0 -22 4 -19 9 6 10 -63 26 -72 17 -3 -3 2 -6 11 -6 9 0 19 -4
22 -10 4 -7 -73 -10 -224 -10 l-231 0 0 24 c0 14 -4 27 -9 30 -4 3 -6 -6 -3
-19 4 -25 3 -25 -62 -25 -64 0 -66 1 -66 25 0 23 4 25 48 26 26 1 101 5 167 9
66 3 199 6 295 6 l175 0 -165 -6z m215 0 l-30 -8 28 -1 c17 -1 27 -7 27 -17 0
-28 -20 -54 -43 -54 -19 0 -22 5 -22 45 0 45 0 45 35 44 l35 -1 -30 -8z"/>
<path d="M1256 438 c-12 -16 -16 -47 -16 -110 l0 -88 70 0 c80 0 118 14 126
47 8 28 -8 49 -43 58 l-27 6 25 12 c14 8 25 23 27 39 4 37 -30 58 -95 58 -42
0 -55 -4 -67 -22z m88 -31 c21 -29 21 -29 1 -44 -14 -11 -16 -17 -7 -20 18 -7
43 -59 36 -77 -7 -19 -35 -21 -52 -4 -7 7 -12 38 -12 69 0 50 -3 59 -25 73
-14 9 -23 21 -19 27 11 19 57 4 78 -24z"/>
<path d="M1519 429 c-48 -52 -34 -150 26 -177 93 -42 186 38 155 133 -16 49
-53 75 -107 75 -37 0 -50 -5 -74 -31z m81 -19 c82 -88 77 -199 -6 -119 -37 35
-70 109 -61 134 10 24 36 18 67 -15z"/>
<path d="M1798 440 c-85 -66 -41 -200 66 -200 83 1 131 84 94 165 -24 53 -113
73 -160 35z m72 -37 c57 -64 75 -143 33 -143 -32 0 -103 101 -103 147 0 45 29
44 70 -4z"/>
<path d="M2020 350 l0 -110 34 0 c42 0 66 29 66 78 0 23 4 32 13 29 7 -2 12
-21 12 -46 0 -62 48 -82 96 -40 23 19 23 20 2 14 -17 -5 -24 1 -40 32 -13 27
-27 41 -51 48 -46 13 -34 31 20 27 45 -3 46 -3 58 33 12 38 6 61 -10 35 -7
-12 -12 -12 -22 -2 -6 6 -24 12 -40 12 -23 0 -29 -6 -37 -37 -6 -21 -11 -58
-11 -83 0 -52 -22 -90 -51 -90 -28 0 -37 30 -13 46 41 29 44 35 44 99 l0 65
-35 0 -35 0 0 -110z"/>
<path d="M2280 348 c1 -82 3 -108 11 -95 12 21 42 22 59 2 7 -8 27 -15 46 -15
38 0 64 29 64 70 -1 23 -2 24 -14 8 -15 -20 -41 -24 -51 -8 -8 13 -51 13 -78
-1 -18 -8 -18 -6 4 13 22 19 28 34 31 81 l5 57 -39 0 -38 0 0 -112z"/>
<path d="M2479 444 c-12 -15 -11 -16 8 -10 18 6 23 1 32 -27 9 -26 20 -37 44
-44 41 -11 43 -42 5 -61 -19 -9 -28 -21 -28 -38 0 -21 5 -24 35 -24 l35 0 0
50 c0 57 15 93 54 129 36 34 33 41 -19 41 -45 0 -45 0 -31 -22 10 -17 11 -29
4 -48 l-10 -25 -10 30 c-6 17 -17 38 -26 48 -19 22 -75 22 -93 1z"/>
</g>
</svg>
